<?xml version="1.0" ?><svg id="Layer_1" style="enable-background:new 0 0 512 512;" version="1.1" viewBox="0 0 512 512" xml:space="preserve" xmlns="http://www.w3.org/2000/svg" xmlns:xlink="http://www.w3.org/1999/xlink"><style type="text/css">
	.st0{fill:#5BB28E;stroke:#414042;stroke-width:20;stroke-miterlimit:10;}
	.st1{fill:#AEDEEF;}
	.st2{fill:#6DC5A5;}
	.st3{fill:#F15A29;stroke:#414042;stroke-width:14;stroke-miterlimit:10;}
	.st4{fill:#414042;}
	.st5{fill:none;stroke:#414042;stroke-width:14;stroke-linecap:round;stroke-linejoin:round;stroke-miterlimit:10;}
	.st6{fill:#F9ED32;stroke:#414042;stroke-width:14;stroke-miterlimit:10;}
</style><circle class="st0" cx="256.9" cy="247.6" id="XMLID_363_" r="195.1"/><path class="st1" d="M439.6,249.7c0,97.4-54,167.5-151.1,181.3c-96.3,13.7-201.1-83.9-201.1-181.3  S166.2,63.5,263.5,63.5S439.6,152.3,439.6,249.7z" id="XMLID_362_"/><path class="st2" d="M431,248.9c0,96.4-53.6,165.8-150,179.5c-95.6,13.5-199.6-83.1-199.6-179.5  S159.7,64.5,256.2,63.5C369.6,62.3,431,152.5,431,248.9z" id="XMLID_361_"/><circle class="st3" cx="205.6" cy="260.5" id="XMLID_360_" r="41.1"/><circle class="st4" cx="103.9" cy="41.8" id="XMLID_359_" r="5"/><circle class="st4" cx="239.3" cy="310.2" id="XMLID_358_" r="5"/><circle class="st4" cx="120.2" cy="422.7" id="XMLID_357_" r="11.3"/><circle class="st4" cx="334.5" cy="470.5" id="XMLID_356_" r="5"/><circle class="st4" cx="254.2" cy="160.7" id="XMLID_354_" r="5"/><circle class="st4" cx="279.6" cy="160.7" id="XMLID_353_" r="7.7"/><path class="st5" d="M274.1,394.2c7.9-5.6,17.6-8.8,28-8.8c27,0,48.9,21.9,48.9,48.9c0,9.6-2.8,18.6-7.6,26.2" id="XMLID_352_"/><circle class="st6" cx="81.4" cy="82.1" id="XMLID_351_" r="15.1"/><circle class="st3" cx="287.3" cy="300.2" id="XMLID_23_" r="15.2"/><circle class="st4" cx="189.6" cy="324.6" id="XMLID_355_" r="9.6"/><circle class="st4" cx="164.6" cy="442.6" id="XMLID_42_" r="5"/><circle class="st6" cx="389.5" cy="445.3" id="XMLID_43_" r="15.1"/></svg>